<svg xmlns="http://www.w3.org/2000/svg" width="147" height="156" viewBox="0 0 147 156">
<g>
<path d="M 111.17 87.06 C110.97,87.63 94.19,88.00 69.10,88.00 L 27.36 88.00 L 23.40 84.61 C17.88,79.89 17.00,74.79 17.00,47.64 C17.00,23.23 17.51,20.94 23.53,18.42 C28.24,16.46 124.12,16.33 128.00,18.29 C131.50,20.05 133.82,27.60 133.92,37.55 C133.96,41.98 133.55,46.05 132.99,46.61 C132.44,47.16 131.70,54.79 131.36,63.56 C130.57,83.86 130.57,83.85 115.60,85.64 C113.34,85.90 111.35,86.55 111.17,87.06 ZM 87.15 156.00 C88.84,156.00 88.98,155.20 88.75,147.07 C88.50,138.20 88.53,138.10 91.75,134.77 C93.54,132.92 95.00,130.92 95.00,130.32 C95.00,129.73 95.74,128.63 96.65,127.87 C97.57,127.12 98.92,125.04 99.66,123.26 C101.17,119.65 100.79,117.40 96.58,105.10 C96.49,104.85 96.41,104.60 96.33,104.37 C94.68,99.57 93.75,96.86 94.70,95.28 C95.99,93.15 100.74,93.11 111.85,92.82 C125.75,92.46 129.21,92.06 132.52,90.44 C139.77,86.90 140.00,85.69 139.96,51.50 C139.93,18.18 138.87,8.17 134.84,3.07 L 132.50 0.11 L 12.90 0.00 L 147.00 0.00 L 147.00 156.00 L 87.15 156.00 ZM 53.62 150.25 L 52.86 156.00 L 0.00 156.00 L 0.00 0.00 L 12.90 0.00 L 10.59 2.69 C8.66,4.93 8.26,6.61 8.12,12.94 C8.04,17.10 7.47,22.52 6.86,25.00 C5.62,30.06 7.21,69.77 8.90,76.00 C9.43,77.93 10.35,81.39 10.95,83.70 C11.70,86.55 13.09,88.64 15.28,90.20 C18.26,92.33 19.69,92.52 34.25,92.82 L 50.00 93.14 L 50.00 95.55 C50.00,96.87 49.38,99.66 48.63,101.73 C47.12,105.88 45.21,114.09 44.85,118.00 C44.41,122.68 47.22,131.13 50.73,135.74 C54.56,140.75 54.76,141.76 53.62,150.25 ZM 85.62 121.50 C84.29,123.32 83.00,123.50 70.95,123.50 C57.77,123.50 55.68,122.95 57.54,119.94 C57.93,119.30 58.62,115.79 59.06,112.14 C60.13,103.36 61.82,93.85 62.42,93.24 C62.69,92.98 67.03,92.70 72.07,92.63 C82.52,92.48 84.00,93.41 84.00,100.16 C84.00,102.20 84.39,104.91 84.87,106.18 C86.73,111.17 87.14,119.43 85.62,121.50 ZM 94.39 53.20 C99.09,53.67 100.79,53.04 103.51,49.80 C107.99,44.49 106.53,36.96 100.55,34.46 C92.90,31.26 84.19,36.65 85.36,43.85 C86.09,48.35 90.39,52.81 94.39,53.20 ZM 49.83 51.29 C51.30,52.20 54.14,52.96 56.15,52.97 C59.09,52.99 60.39,52.31 62.90,49.47 C66.88,44.93 66.96,41.10 63.16,36.85 C60.68,34.08 59.71,33.69 55.43,33.75 C51.28,33.82 50.13,34.29 47.77,36.93 C43.53,41.67 44.43,47.94 49.83,51.29 ZM 79.00 156.00 L 79.00 149.19 C79.00,136.24 83.61,136.01 84.70,148.91 C85.20,154.94 85.57,156.00 87.15,156.00 L 79.00 156.00 ZM 66.00 156.00 L 56.32 156.00 C60.12,156.00 60.99,154.83 61.01,149.67 C61.03,144.09 62.22,139.00 63.51,139.00 C65.21,139.00 65.97,142.29 65.99,149.75 L 66.00 156.00 ZM 72.80 143.84 C72.34,149.18 70.35,148.83 69.73,143.29 C69.10,137.79 69.35,137.21 71.53,139.02 C72.55,139.87 73.00,141.57 72.80,143.84 Z" fill="rgb(2,5,2)"/>
<path d="M 128.64 0.11 C126.33,0.40 126.55,1.85 129.48,2.59 C132.23,3.28 136.33,9.08 135.83,11.57 C135.53,13.01 129.99,13.16 79.31,13.05 C30.82,12.94 22.61,13.13 19.44,14.46 C13.80,16.82 12.48,16.47 11.19,12.28 C9.77,7.65 11.63,4.22 16.02,3.35 C17.64,3.02 19.47,2.14 20.10,1.38 C20.97,0.33 20.58,0.04 17.81,0.00 ZM 28.36 89.50 C28.82,90.69 28.06,91.00 24.72,90.99 C19.61,90.97 16.38,89.43 13.60,85.68 C11.75,83.20 11.49,81.38 11.39,70.68 L 11.29 58.50 L 11.89 70.17 C12.23,76.59 12.82,82.16 13.21,82.55 C13.87,83.21 14.84,81.44 16.52,76.50 C16.82,75.60 17.04,67.54 17.06,57.35 C17.32,76.14 18.62,80.52 23.40,84.61 L 27.36 88.00 L 69.10 88.00 C32.79,88.00 27.86,88.18 28.36,89.50 ZM 138.45 13.20 C136.90,4.99 134.24,0.64 130.43,0.11 L 132.50 0.11 L 134.84 3.07 C136.50,5.17 137.66,8.12 138.45,13.20 ZM 16.71 0.00 C14.66,0.04 13.04,0.44 11.80,1.29 L 12.90 0.00 ZM 17.01 42.82 C17.01,22.70 17.92,20.77 23.53,18.42 C17.94,20.76 17.10,22.91 17.01,42.82 ZM 9.52 4.16 C8.62,6.18 8.21,9.04 8.12,12.94 C8.23,8.02 8.49,5.91 9.52,4.16 Z" fill="rgb(6,1,227)"/>
<path d="M 61.28 51.15 C61.99,50.18 61.55,50.00 59.26,50.00 C56.41,50.00 51.00,46.76 51.00,45.05 C51.00,43.13 57.23,43.08 60.94,44.97 C62.67,45.85 64.33,46.41 65.05,46.39 C64.54,47.38 63.83,48.41 62.90,49.47 C62.30,50.14 61.77,50.70 61.28,51.15 ZM 102.69 48.36 C101.70,50.94 97.36,50.30 93.77,47.03 L 90.50 44.06 L 95.06 44.03 C100.29,44.00 103.64,45.90 102.69,48.36 ZM 65.93 42.47 C65.56,40.58 64.57,38.44 63.16,36.85 C64.88,38.78 65.80,40.61 65.93,42.47 ZM 53.72 52.69 C55.52,53.01 57.40,53.00 58.85,52.65 C58.07,52.90 57.22,52.98 56.15,52.97 C55.41,52.97 54.57,52.86 53.72,52.69 Z" fill="rgb(15,187,118)"/>
<path d="M 14.72 15.91 C14.38,15.97 14.08,16.00 13.85,16.00 C12.77,16.00 11.62,16.97 11.18,18.25 C10.33,20.76 11.41,64.13 12.45,77.84 C12.24,75.70 12.04,73.02 11.89,70.17 L 11.29 58.50 L 11.39 70.68 C11.49,81.38 11.75,83.20 13.60,85.68 C16.38,89.43 19.61,90.97 24.72,90.99 C27.62,91.00 28.57,90.76 28.48,89.92 C28.84,90.26 29.39,90.55 30.00,90.71 C31.10,91.00 32.00,91.63 32.00,92.12 C32.00,92.43 33.63,92.70 36.09,92.86 L 34.25 92.82 C19.69,92.52 18.26,92.33 15.28,90.20 C13.09,88.64 11.70,86.55 10.95,83.70 C10.35,81.39 9.43,77.93 8.90,76.00 C8.45,74.33 8.00,70.24 7.61,65.06 L 8.62 58.50 C10.19,48.29 10.32,31.67 8.87,26.50 C7.84,22.81 7.73,22.59 6.94,24.65 C7.52,22.05 8.04,16.91 8.12,12.94 C8.19,10.01 8.44,7.67 8.93,5.83 C9.55,5.68 10.94,4.74 13.00,3.00 C15.43,0.95 16.00,0.27 15.14,0.12 C15.63,0.05 16.15,0.01 16.71,0.00 L 17.81 0.00 C20.58,0.04 20.97,0.33 20.10,1.38 C19.47,2.14 17.64,3.02 16.02,3.35 C11.63,4.22 9.77,7.65 11.19,12.28 C12.00,14.91 12.82,16.03 14.72,15.91 ZM 128.64 0.11 L 130.43 0.11 C130.52,0.12 130.61,0.14 130.70,0.15 C130.40,0.46 131.03,1.47 132.50,3.00 C134.08,4.65 135.77,6.00 136.26,6.00 C136.32,6.00 136.37,5.99 136.40,5.98 C137.22,7.91 137.91,10.32 138.45,13.20 C138.66,14.54 138.84,16.02 139.00,17.68 L 137.02 16.27 C135.66,15.30 133.63,14.21 132.52,13.85 C131.41,13.49 106.30,13.15 76.72,13.10 C31.01,13.01 22.40,13.23 19.35,14.50 C19.31,14.52 19.27,14.53 19.23,14.55 C19.30,14.52 19.37,14.49 19.44,14.46 C22.61,13.13 30.82,12.94 79.31,13.05 C129.99,13.16 135.53,13.01 135.83,11.57 C136.33,9.08 132.23,3.28 129.48,2.59 C126.55,1.85 126.33,0.40 128.64,0.11 ZM 139.84 71.26 C139.89,66.37 139.85,59.54 139.77,49.77 L 139.57 26.60 C139.84,33.01 139.95,41.13 139.96,51.50 C139.97,59.90 139.97,66.31 139.84,71.26 ZM 131.61 90.85 C128.49,92.13 124.48,92.49 111.85,92.82 C121.88,92.56 127.80,92.10 131.61,90.85 ZM 135.44 88.81 C136.61,87.82 137.48,86.57 138.27,85.00 C138.31,84.92 138.35,84.84 138.39,84.77 C137.72,86.72 136.77,87.87 135.44,88.81 ZM 134.84 3.10 C134.14,2.29 133.33,1.48 132.60,0.90 C133.41,1.41 134.16,2.14 134.84,3.10 ZM 13.01 81.98 C13.27,82.42 13.50,82.65 13.76,82.58 C13.56,82.73 13.38,82.71 13.21,82.55 C13.15,82.49 13.08,82.29 13.01,81.98 ZM 11.36 1.80 L 11.80 1.29 C12.07,1.10 12.36,0.94 12.66,0.80 C12.23,1.07 11.79,1.41 11.36,1.80 ZM 43.34 93.00 C44.87,93.01 46.05,93.03 46.96,93.08 ZM 111.14 87.09 C110.38,87.64 93.87,88.00 69.42,88.00 C93.88,88.00 110.38,87.64 111.14,87.09 Z" fill="rgb(25,6,165)"/>
<path d="M 94.39 53.20 C90.57,52.82 86.48,48.74 85.48,44.46 C85.74,44.81 86.08,45.00 86.50,45.00 C87.32,45.00 88.00,44.57 88.00,44.05 C88.00,43.49 90.16,43.35 93.25,43.72 L 96.05 44.05 C95.73,44.03 95.40,44.03 95.06,44.03 L 90.50 44.06 L 93.77 47.03 C97.36,50.30 101.70,50.94 102.69,48.36 C103.41,46.49 101.66,44.95 98.49,44.33 L 95.25 40.63 C93.46,38.60 92.00,36.50 92.00,35.97 C92.00,34.27 89.98,34.93 87.45,37.45 C86.76,38.15 86.13,39.09 85.68,40.02 C87.32,35.27 93.44,32.28 99.29,34.01 C99.21,34.00 99.13,34.00 99.05,34.00 C97.92,34.00 97.00,34.25 97.00,34.55 C97.00,36.00 100.48,41.58 102.37,43.16 C105.36,45.65 106.00,45.44 106.00,41.95 C106.00,39.99 104.82,37.76 103.23,36.16 C106.86,39.48 107.22,45.40 103.51,49.80 C100.79,53.04 99.09,53.67 94.39,53.20 ZM 49.83 51.29 C47.08,49.58 45.50,47.12 45.17,44.49 C45.28,44.82 45.44,45.11 45.67,45.33 C46.94,46.60 48.00,45.99 48.00,43.99 C48.00,42.29 48.28,42.16 49.85,43.14 C50.51,43.55 51.50,43.78 52.55,43.80 C51.60,44.04 51.00,44.45 51.00,45.05 C51.00,46.76 56.41,50.00 59.26,50.00 C61.55,50.00 61.99,50.18 61.28,51.15 C60.44,51.91 59.69,52.37 58.85,52.65 C57.40,53.00 55.52,53.01 53.72,52.69 C52.24,52.38 50.76,51.87 49.83,51.29 ZM 61.25 42.51 C63.03,44.40 64.82,45.95 65.24,45.98 C65.18,46.12 65.12,46.25 65.05,46.39 C64.33,46.41 62.67,45.85 60.94,44.97 C59.07,44.02 56.56,43.56 54.53,43.58 L 57.29 42.89 L 54.13 39.63 C52.39,37.84 51.27,36.06 51.65,35.68 C52.03,35.31 51.79,35.00 51.12,35.00 C48.85,35.00 46.28,38.36 45.36,41.35 C45.74,39.82 46.54,38.31 47.77,36.93 C50.13,34.29 51.28,33.82 55.43,33.75 C59.24,33.69 60.43,34.00 62.39,36.02 C59.71,33.61 56.42,33.06 57.39,35.58 C57.73,36.45 58.00,37.59 58.00,38.11 C58.00,38.63 59.46,40.61 61.25,42.51 ZM 65.94 42.81 C65.70,41.51 65.19,40.01 64.50,38.72 C65.20,39.93 65.69,41.25 65.93,42.47 C65.94,42.58 65.94,42.69 65.94,42.81 Z" fill="rgb(35,160,101)"/>
<path d="M 90.58 35.16 C91.45,34.84 92.00,35.08 92.00,35.97 C92.00,36.50 93.46,38.60 95.25,40.63 L 98.49 44.33 C97.75,44.18 96.93,44.08 96.05,44.05 L 93.25 43.72 C90.16,43.35 88.00,43.49 88.00,44.05 C88.00,44.57 87.32,45.00 86.50,45.00 C87.32,45.00 88.00,44.49 88.00,43.86 C88.00,43.23 88.71,42.20 89.59,41.56 C90.58,40.83 91.05,39.30 90.84,37.45 ZM 48.01 36.75 C48.99,35.70 50.09,35.00 51.12,35.00 C51.79,35.00 52.03,35.31 51.65,35.68 C51.27,36.06 52.39,37.84 54.13,39.63 L 57.29 42.89 L 54.53 43.58 C53.79,43.59 53.11,43.66 52.55,43.80 C51.50,43.78 50.51,43.55 49.85,43.14 C48.97,42.59 48.49,42.39 48.25,42.62 C48.41,42.24 48.63,42.00 48.88,42.00 C50.21,42.00 50.88,38.42 49.86,36.86 C49.32,36.05 48.86,35.96 48.01,36.75 ZM 85.63 40.18 C85.64,40.13 85.66,40.07 85.68,40.02 C86.13,39.09 86.76,38.15 87.45,37.45 C87.75,37.16 88.04,36.88 88.32,36.64 L 87.75 37.20 C86.88,38.06 86.12,39.14 85.63,40.18 ZM 45.67 45.33 C45.44,45.11 45.28,44.82 45.17,44.49 C45.17,44.48 45.17,44.47 45.16,44.45 C45.28,44.81 45.44,45.11 45.67,45.33 Z" fill="rgb(48,192,121)"/>
<path d="M 53.62 150.25 C54.76,141.76 54.56,140.75 50.73,135.74 C47.22,131.13 44.41,122.68 44.85,118.00 C45.21,114.09 47.12,105.88 48.63,101.73 C49.38,99.66 50.00,96.87 50.00,95.55 L 50.00 93.43 L 52.66 93.50 L 51.47 99.00 C50.81,102.03 49.54,107.75 48.66,111.72 C47.77,115.69 47.30,119.63 47.63,120.47 C49.40,125.08 56.98,119.54 57.02,113.62 C57.05,109.68 59.55,94.12 60.28,93.39 C60.39,93.28 61.46,93.17 63.11,93.07 C62.72,93.13 62.48,93.19 62.42,93.24 C61.82,93.85 60.13,103.36 59.06,112.14 C58.62,115.79 57.93,119.30 57.54,119.94 C55.68,122.95 57.77,123.50 70.95,123.50 C83.00,123.50 84.29,123.32 85.62,121.50 C87.14,119.43 86.73,111.17 84.87,106.18 C84.39,104.91 84.00,102.20 84.00,100.16 C84.00,94.96 83.12,93.21 77.94,92.76 C80.22,92.76 82.25,92.80 83.68,92.88 C86.35,93.03 86.60,93.76 88.51,107.51 C89.36,113.55 90.29,119.29 90.59,120.25 C91.29,122.49 96.81,122.66 97.65,120.46 C98.12,119.24 95.28,105.44 92.39,94.87 C91.99,93.42 93.94,93.20 110.22,92.83 C112.84,92.77 115.12,92.71 117.11,92.64 C115.49,92.71 113.74,92.77 111.85,92.82 C100.74,93.11 95.99,93.15 94.70,95.28 C93.75,96.86 94.68,99.57 96.33,104.37 C96.41,104.60 96.49,104.85 96.58,105.10 C100.79,117.40 101.17,119.65 99.66,123.26 C98.92,125.04 97.57,127.12 96.65,127.87 C95.74,128.63 95.00,129.73 95.00,130.32 C95.00,130.92 93.54,132.92 91.75,134.77 C88.53,138.10 88.50,138.20 88.75,147.07 C88.98,155.20 88.84,156.00 87.15,156.00 C85.57,156.00 85.20,154.94 84.70,148.91 C83.61,136.01 79.00,136.24 79.00,149.19 L 79.00 156.00 L 66.00 156.00 L 65.99 149.75 C65.97,142.29 65.21,139.00 63.51,139.00 C62.22,139.00 61.03,144.09 61.01,149.67 C61.00,152.85 60.66,154.52 59.51,155.33 C59.98,154.47 60.00,152.51 60.00,148.06 C60.00,140.23 59.43,138.47 57.34,139.82 C56.07,140.63 53.66,153.65 54.52,155.04 C54.81,155.50 55.90,155.89 57.08,155.98 C56.84,155.99 56.59,156.00 56.32,156.00 L 52.86 156.00 ZM 8.37 42.00 C8.43,51.04 8.67,56.17 9.00,55.66 C8.89,56.65 8.76,57.60 8.62,58.50 L 7.61 65.06 C6.56,50.94 5.95,28.70 6.86,25.00 C6.89,24.89 6.91,24.77 6.94,24.65 C7.73,22.59 7.84,22.81 8.87,26.50 C8.90,26.61 8.93,26.72 8.96,26.83 C8.58,26.53 8.32,33.01 8.37,42.00 ZM 73.55 155.07 C74.45,156.54 76.73,156.15 77.39,154.42 C77.73,153.55 78.00,149.95 78.00,146.42 C78.00,140.83 77.76,140.00 76.14,140.00 C74.57,140.00 74.19,141.09 73.63,147.07 C73.27,150.96 73.23,154.56 73.55,155.07 ZM 111.17 87.06 C111.35,86.55 113.34,85.90 115.60,85.64 C126.10,84.39 129.23,84.01 130.44,76.91 C130.18,79.36 129.90,81.04 129.65,81.50 C129.06,82.60 128.69,84.04 128.82,84.69 C129.38,87.47 120.81,87.99 74.75,87.99 L 74.57 87.99 C96.17,87.95 110.43,87.60 111.14,87.09 C111.15,87.08 111.16,87.07 111.17,87.06 ZM 72.80 143.84 C73.00,141.57 72.55,139.87 71.53,139.02 C69.35,137.21 69.10,137.79 69.73,143.29 C70.35,148.83 72.34,149.18 72.80,143.84 ZM 67.61 154.42 C68.53,156.82 70.00,156.31 70.00,153.58 C70.00,150.52 69.05,148.00 67.89,148.00 C66.88,148.00 66.70,152.05 67.61,154.42 ZM 86.75 155.43 C87.92,156.61 88.21,149.72 87.11,146.97 C86.26,144.85 86.12,145.21 86.06,149.58 C86.03,152.38 86.34,155.01 86.75,155.43 ZM 9.52 4.16 C9.81,3.66 10.16,3.19 10.59,2.69 L 11.36 1.80 C11.79,1.41 12.23,1.07 12.66,0.80 C13.38,0.46 14.20,0.24 15.14,0.12 C16.00,0.27 15.43,0.95 13.00,3.00 C10.94,4.74 9.55,5.68 8.93,5.83 C9.10,5.22 9.29,4.66 9.52,4.16 ZM 29.39 88.71 C32.21,88.11 41.56,88.00 67.98,88.00 C45.28,88.04 33.24,88.26 29.39,88.71 ZM 9.75 45.67 C9.88,40.08 9.78,33.71 9.46,29.91 C9.90,33.90 9.99,39.78 9.75,45.67 ZM 139.84 71.26 C139.78,73.76 139.69,75.89 139.55,77.71 C139.86,73.20 139.89,66.77 139.83,57.38 C139.87,63.25 139.88,67.75 139.84,71.26 ZM 35.49 92.81 C33.37,92.65 32.00,92.40 32.00,92.12 C32.00,91.63 31.10,91.00 30.00,90.71 C31.10,91.00 32.00,91.62 32.00,92.08 C32.00,92.33 33.35,92.60 35.49,92.81 Z" fill="rgb(16,4,34)"/>
<path d="M 132.52 90.44 C132.22,90.59 131.92,90.73 131.61,90.85 C128.52,91.86 124.04,92.36 117.11,92.64 C115.12,92.71 112.84,92.77 110.22,92.83 C93.94,93.20 91.99,93.42 92.39,94.87 C95.28,105.44 98.12,119.24 97.65,120.46 C96.81,122.66 91.29,122.49 90.59,120.25 C90.29,119.29 89.36,113.55 88.51,107.51 C86.60,93.76 86.35,93.03 83.68,92.88 C82.25,92.80 80.22,92.76 77.94,92.76 C77.13,92.68 76.21,92.64 75.17,92.63 C80.87,92.48 87.81,92.35 95.24,92.26 C119.28,91.95 128.79,91.75 133.36,90.03 C133.09,90.16 132.81,90.30 132.52,90.44 ZM 131.37 82.73 C130.57,83.81 129.87,84.66 128.76,85.33 C128.85,85.13 128.87,84.92 128.82,84.69 C128.69,84.04 129.06,82.60 129.65,81.50 C129.90,81.04 130.18,79.36 130.44,76.91 C130.96,73.88 131.12,69.63 131.36,63.56 C131.70,54.79 132.44,47.16 132.99,46.61 C133.45,46.15 133.82,43.27 133.90,39.78 C133.92,43.59 133.87,48.56 133.78,55.23 C133.45,78.30 133.29,80.14 131.37,82.73 ZM 59.51 155.33 C58.93,155.74 58.14,155.93 57.08,155.98 C55.90,155.89 54.81,155.50 54.52,155.04 C53.66,153.65 56.07,140.63 57.34,139.82 C59.43,138.47 60.00,140.23 60.00,148.06 C60.00,152.51 59.98,154.47 59.51,155.33 ZM 73.55 155.07 C73.23,154.56 73.27,150.96 73.63,147.07 C74.19,141.09 74.57,140.00 76.14,140.00 C77.76,140.00 78.00,140.83 78.00,146.42 C78.00,149.95 77.73,153.55 77.39,154.42 C76.73,156.15 74.45,156.54 73.55,155.07 ZM 92.58 117.75 C93.30,120.30 96.00,119.06 96.00,116.18 C96.00,112.12 93.25,103.45 91.50,102.00 C90.21,100.93 90.00,101.29 90.00,104.51 C90.00,107.71 90.58,110.68 92.58,117.75 ZM 8.37 42.00 C8.32,33.01 8.58,26.53 8.96,26.83 C9.16,27.65 9.32,28.69 9.46,29.91 C9.78,33.71 9.88,40.08 9.75,45.67 C9.62,49.12 9.36,52.58 9.00,55.66 C8.67,56.17 8.43,51.04 8.37,42.00 ZM 56.00 150.21 C56.00,157.49 58.41,156.03 58.80,148.50 C59.08,143.32 58.94,142.81 57.55,143.95 C56.53,144.80 56.00,146.94 56.00,150.21 ZM 74.64 153.31 C75.97,154.64 77.00,152.74 77.00,148.94 C77.00,144.95 75.72,143.69 74.61,146.58 C73.81,148.65 73.83,152.50 74.64,153.31 ZM 67.61 154.42 C66.70,152.05 66.88,148.00 67.89,148.00 C69.05,148.00 70.00,150.52 70.00,153.58 C70.00,156.31 68.53,156.82 67.61,154.42 ZM 86.75 155.43 C86.34,155.01 86.03,152.38 86.06,149.58 C86.12,145.21 86.26,144.85 87.11,146.97 C88.21,149.72 87.92,156.61 86.75,155.43 ZM 134.84 3.10 C135.41,3.90 135.93,4.86 136.40,5.98 C136.37,5.99 136.32,6.00 136.26,6.00 C135.77,6.00 134.08,4.65 132.50,3.00 C131.03,1.47 130.40,0.46 130.70,0.15 C131.37,0.28 132.00,0.53 132.60,0.90 C133.33,1.48 134.14,2.29 134.84,3.10 ZM 133.77 33.74 C133.49,29.93 132.86,26.60 131.96,23.99 C132.08,24.32 132.20,24.67 132.32,25.03 C133.12,27.44 133.56,29.53 133.77,33.74 ZM 63.51 93.02 C63.36,93.04 63.23,93.06 63.11,93.07 C61.57,93.16 60.54,93.26 60.31,93.37 C60.33,93.34 60.34,93.33 60.36,93.31 C60.44,93.22 61.57,93.12 63.51,93.02 ZM 57.02 113.62 C57.03,111.61 57.63,106.99 58.33,102.67 C57.63,107.04 57.03,111.70 57.02,113.62 ZM 128.75 18.76 C129.03,18.98 129.30,19.24 129.57,19.54 C129.30,19.24 129.03,18.98 128.75,18.76 ZM 29.39 88.71 C29.69,88.68 30.02,88.65 30.41,88.61 C30.02,88.65 29.68,88.68 29.39,88.72 ZM 111.14 87.09 C111.13,87.10 111.13,87.10 111.12,87.10 C110.94,87.20 110.29,87.29 109.19,87.37 C110.33,87.28 111.00,87.19 111.14,87.09 Z" fill="rgb(36,6,85)"/>
<path d="M 63.51 93.02 C61.57,93.12 60.44,93.22 60.36,93.31 C60.34,93.33 60.33,93.34 60.31,93.37 C60.30,93.38 60.28,93.38 60.28,93.39 C59.90,93.76 59.06,98.05 58.33,102.67 L 58.33 102.67 L 32.10 92.17 C32.06,92.16 32.04,92.15 32.02,92.14 C32.01,92.13 32.00,92.12 32.00,92.11 C32.00,91.66 31.21,91.08 30.20,90.77 C30.14,90.75 30.07,90.73 30.00,90.71 C31.10,91.00 32.00,91.62 32.00,92.08 C32.00,92.10 32.01,92.12 32.02,92.14 L 32.10 92.17 C33.67,92.62 54.14,92.73 80.75,92.41 C115.89,92.00 128.20,91.87 133.44,89.99 C128.79,91.75 119.28,91.95 95.24,92.26 C87.81,92.35 80.87,92.48 75.17,92.63 C74.24,92.61 73.21,92.61 72.07,92.63 C68.43,92.68 65.14,92.84 63.51,93.02 ZM 92.58 117.75 C90.58,110.68 90.00,107.71 90.00,104.51 C90.00,101.29 90.21,100.93 91.50,102.00 C93.25,103.45 96.00,112.12 96.00,116.18 C96.00,119.06 93.30,120.30 92.58,117.75 ZM 56.00 150.21 C56.00,146.94 56.53,144.80 57.55,143.95 C58.94,142.81 59.08,143.32 58.80,148.50 C58.41,156.03 56.00,157.49 56.00,150.21 ZM 74.64 153.31 C73.83,152.50 73.81,148.65 74.61,146.58 C75.72,143.69 77.00,144.95 77.00,148.94 C77.00,152.74 75.97,154.64 74.64,153.31 ZM 91.65 16.93 C62.62,16.72 26.38,17.23 23.53,18.42 C26.38,17.23 62.62,16.72 91.65,16.93 ZM 128.75 18.76 C128.50,18.58 128.26,18.42 128.00,18.29 C126.47,17.52 110.59,17.07 91.65,16.93 C110.59,17.07 126.47,17.52 128.00,18.29 C128.25,18.42 128.50,18.57 128.75,18.76 Z" fill="rgb(82,4,157)"/>
<path d="M 57.02 113.62 C56.98,119.54 49.40,125.08 47.63,120.47 C47.30,119.63 47.77,115.69 48.66,111.72 C49.47,108.09 50.59,103.01 51.28,99.85 L 58.33 102.67 L 58.33 102.67 C57.63,106.99 57.03,111.61 57.02,113.62 ZM 61.25 42.51 C59.46,40.61 58.00,38.63 58.00,38.11 C58.00,37.59 57.73,36.45 57.39,35.58 C56.42,33.06 59.71,33.61 62.39,36.02 C62.63,36.27 62.89,36.55 63.16,36.85 C63.77,37.54 64.28,38.21 64.69,38.88 C65.19,40.01 65.70,41.51 65.94,42.81 C65.96,43.85 65.73,44.90 65.24,45.98 C64.82,45.95 63.03,44.40 61.25,42.51 ZM 100.55 34.46 C101.58,34.89 102.48,35.47 103.23,36.16 C104.82,37.76 106.00,39.99 106.00,41.95 C106.00,45.44 105.36,45.65 102.37,43.16 C100.48,41.58 97.00,36.00 97.00,34.55 C97.00,34.25 97.92,34.00 99.05,34.00 C99.13,34.00 99.21,34.00 99.29,34.01 C99.71,34.13 100.13,34.28 100.55,34.46 ZM 85.63 40.18 C86.12,39.14 86.88,38.06 87.75,37.20 L 88.32 36.64 C89.19,35.89 89.96,35.39 90.58,35.16 L 90.84 37.45 C91.05,39.30 90.58,40.83 89.59,41.56 C88.71,42.20 88.00,43.23 88.00,43.86 C88.00,44.49 87.32,45.00 86.50,45.00 C86.08,45.00 85.74,44.81 85.48,44.46 C85.44,44.26 85.40,44.05 85.36,43.85 C85.15,42.56 85.26,41.32 85.63,40.18 ZM 48.01 36.75 C48.86,35.96 49.32,36.05 49.86,36.86 C50.88,38.42 50.21,42.00 48.88,42.00 C48.63,42.00 48.41,42.24 48.25,42.62 C48.05,42.80 48.00,43.25 48.00,43.99 C48.00,45.99 46.94,46.60 45.67,45.33 C45.44,45.11 45.28,44.81 45.16,44.45 C45.04,43.43 45.10,42.39 45.36,41.35 C45.86,39.72 46.85,37.99 48.01,36.75 ZM 32.70 92.41 C32.32,92.32 32.09,92.23 32.02,92.14 C32.04,92.15 32.06,92.16 32.10,92.17 Z" fill="rgb(110,168,124)"/>
<path d="M 17.01 42.82 C17.00,44.32 17.00,45.93 17.00,47.64 C17.00,51.25 17.02,54.47 17.06,57.35 C17.04,67.54 16.82,75.60 16.52,76.50 C15.25,80.23 14.39,82.15 13.76,82.58 C13.50,82.65 13.27,82.42 13.01,81.98 C12.83,81.21 12.64,79.74 12.45,77.84 C11.41,64.13 10.33,20.76 11.18,18.25 C11.62,16.97 12.77,16.00 13.85,16.00 C14.08,16.00 14.38,15.97 14.72,15.91 C15.38,15.87 16.16,15.68 17.10,15.36 C15.35,16.19 13.77,17.18 13.25,17.83 C11.67,19.79 11.63,26.99 13.18,30.68 C14.30,33.37 14.37,33.40 14.75,31.25 C14.96,30.01 15.56,29.00 16.07,29.00 C16.58,29.00 17.00,28.30 17.00,27.45 C17.00,26.15 17.54,24.64 18.40,23.21 C17.27,26.39 17.01,31.96 17.01,42.82 ZM 28.36 89.50 C28.24,89.17 28.45,88.92 29.39,88.72 C29.68,88.68 30.02,88.65 30.41,88.61 L 30.41 88.61 C35.13,88.22 47.00,88.03 67.98,88.00 C68.35,88.00 68.72,88.00 69.10,88.00 L 69.42 88.00 C71.18,88.00 72.90,88.00 74.57,87.99 L 74.57 87.99 L 74.75 87.99 C102.66,87.99 116.80,87.80 123.49,87.03 C118.88,87.77 111.30,87.91 97.68,87.94 C77.41,87.99 72.59,88.27 71.41,89.45 C70.15,90.71 70.63,90.94 75.23,91.26 C78.13,91.46 91.53,91.71 105.00,91.81 C108.15,91.84 111.01,91.88 113.62,91.90 C105.79,92.12 95.20,92.24 80.75,92.41 C54.14,92.73 33.67,92.62 32.10,92.17 L 32.09 92.17 C32.06,92.16 32.04,92.15 32.02,92.14 C32.01,92.12 32.00,92.10 32.00,92.08 C32.00,91.62 31.10,91.00 30.00,90.71 C29.39,90.55 28.84,90.26 28.48,89.92 C28.46,89.80 28.42,89.66 28.36,89.50 ZM 135.44 88.81 C135.37,88.86 135.30,88.91 135.23,88.96 C135.42,88.81 135.60,88.65 135.78,88.48 C137.91,86.48 138.98,83.35 139.49,78.47 C139.25,81.24 138.90,83.25 138.39,84.77 C138.35,84.84 138.31,84.92 138.27,85.00 C137.48,86.57 136.61,87.82 135.44,88.81 Z" fill="rgb(82,5,230)"/>
<path d="M 131.37 82.73 C131.74,82.23 132.04,81.76 132.29,81.17 C131.96,82.29 131.55,83.23 131.02,84.35 C129.08,88.38 128.92,89.34 130.10,90.08 C130.46,90.31 130.76,90.49 131.04,90.63 C127.67,91.30 122.38,91.66 113.62,91.90 C111.01,91.88 108.15,91.84 105.00,91.81 C91.53,91.71 78.13,91.46 75.23,91.26 C70.63,90.94 70.15,90.71 71.41,89.45 C72.59,88.27 77.41,87.99 97.68,87.94 C111.30,87.91 118.88,87.77 123.49,87.03 C126.94,86.63 128.41,86.09 128.76,85.33 C129.87,84.66 130.57,83.81 131.37,82.73 ZM 68.19 16.91 C45.99,17.03 25.64,17.54 23.53,18.42 L 23.53 18.42 C20.95,19.50 19.36,20.49 18.40,23.21 C17.54,24.64 17.00,26.15 17.00,27.45 C17.00,28.30 16.58,29.00 16.07,29.00 C15.56,29.00 14.96,30.01 14.75,31.25 C14.37,33.40 14.30,33.37 13.18,30.68 C11.63,26.99 11.67,19.79 13.25,17.83 C13.77,17.18 15.35,16.19 17.10,15.36 C17.73,15.15 18.44,14.88 19.23,14.55 C19.27,14.53 19.31,14.52 19.35,14.50 C22.40,13.23 31.01,13.01 76.72,13.10 C86.58,13.12 95.95,13.17 104.10,13.24 C73.59,13.00 29.23,13.10 27.21,13.64 C25.95,13.98 25.09,14.76 25.29,15.38 C25.54,16.11 37.94,16.56 68.19,16.91 ZM 128.75 18.76 C128.60,18.65 128.46,18.55 128.31,18.46 L 128.31 18.46 C128.82,18.58 129.14,18.70 129.30,18.83 C130.09,19.49 131.34,22.07 132.25,24.83 C132.15,24.54 132.06,24.26 131.96,23.99 C131.30,22.10 130.49,20.59 129.57,19.54 C129.56,19.54 129.56,19.53 129.55,19.52 C129.29,19.23 129.02,18.98 128.75,18.76 ZM 133.75 57.19 C133.76,56.55 133.77,55.90 133.78,55.23 C133.87,48.56 133.92,43.59 133.90,39.78 C133.92,39.22 133.92,38.65 133.92,38.06 C133.98,42.13 133.92,47.64 133.78,55.50 C133.77,56.08 133.76,56.64 133.75,57.19 ZM 133.77 33.74 C133.72,32.87 133.67,32.09 133.61,31.38 C133.71,32.41 133.79,33.57 133.84,34.93 C133.82,34.53 133.79,34.13 133.77,33.74 Z" fill="rgb(168,13,241)"/>
<path d="M 130.10 90.08 C128.92,89.34 129.08,88.38 131.02,84.35 C133.20,79.79 133.37,78.08 133.78,55.50 C134.15,35.20 133.96,30.63 132.56,25.83 C131.65,22.72 130.18,19.57 129.30,18.83 C128.03,17.78 117.16,17.40 76.68,17.00 C40.24,16.64 25.56,16.18 25.29,15.38 C25.09,14.76 25.95,13.98 27.21,13.64 C30.27,12.82 129.94,13.02 132.52,13.85 C133.63,14.21 135.66,15.30 137.02,16.27 L 139.50 18.04 L 139.81 48.77 C140.15,81.87 139.75,85.48 135.34,88.95 C132.41,91.26 132.07,91.33 130.10,90.08 Z" fill="rgb(233,9,247)"/>
</g>
</svg>